<mxfile host="app.diagrams.net" modified="2023-11-30T08:13:23.895Z" agent="Mozilla/5.0 (Windows NT 10.0; Win64; x64) AppleWebKit/537.36 (KHTML, like Gecko) Chrome/119.0.0.0 Safari/537.36 Edg/119.0.0.0" etag="orcf0POjgCULlhHHSatI" version="22.1.5" type="device">
  <diagram name="Page-1" id="xFJqO6FMUhYE_ulIRA0k">
    <mxGraphModel dx="3565" dy="1963" grid="1" gridSize="10" guides="1" tooltips="1" connect="1" arrows="1" fold="1" page="1" pageScale="1" pageWidth="850" pageHeight="1100" math="0" shadow="0">
      <root>
        <mxCell id="0" />
        <mxCell id="1" parent="0" />
        <mxCell id="NjoNPDYluXKRzzez1GX--15" value="ProgramManager" style="swimlane;whiteSpace=wrap;html=1;fillColor=#ffe6cc;strokeColor=#d79b00;" parent="1" vertex="1">
          <mxGeometry x="15" y="8.75" width="410" height="1002.5" as="geometry" />
        </mxCell>
        <mxCell id="NjoNPDYluXKRzzez1GX--17" value="&lt;p style=&quot;line-height: 130%;&quot;&gt;&lt;/p&gt;&lt;div align=&quot;left&quot;&gt;&lt;ul&gt;&lt;li&gt;&lt;font face=&quot;Tahoma&quot;&gt;list_of_servers: dict/hashmap&lt;/font&gt;&lt;/li&gt;&lt;ul style=&quot;line-height: 130%;&quot;&gt;&lt;li&gt;&lt;font face=&quot;Tahoma&quot;&gt;all the servers in the network&lt;/font&gt;&lt;/li&gt;&lt;li&gt;&lt;font face=&quot;Lucida Console&quot;&gt;{&lt;br&gt;&amp;nbsp; &amp;nbsp; server_id =&amp;gt; ServerObject&lt;br&gt;}&lt;/font&gt;&lt;/li&gt;&lt;/ul&gt;&lt;li&gt;&lt;font face=&quot;Tahoma&quot;&gt;update_interval: int&lt;br&gt;&lt;/font&gt;&lt;/li&gt;&lt;ul&gt;&lt;li&gt;&lt;font face=&quot;Tahoma&quot;&gt;how often (in seconds) the host server will send a routing update to its neighbors&lt;/font&gt;&lt;/li&gt;&lt;/ul&gt;&lt;li&gt;&lt;font face=&quot;Tahoma&quot;&gt;time_stamp: dict/hashmap&lt;/font&gt;&lt;/li&gt;&lt;ul&gt;&lt;li&gt;&lt;font face=&quot;Tahoma&quot;&gt;records time of last received message from a server&lt;/font&gt;&lt;/li&gt;&lt;li&gt;&lt;font face=&quot;Lucida Console&quot;&gt;{&lt;br&gt;&amp;nbsp; &amp;nbsp; server_id =&amp;gt; {&lt;br&gt;&amp;nbsp; &amp;nbsp; &amp;nbsp; &amp;nbsp; &#39;timestamp&#39;: timestamp, &lt;br&gt;&amp;nbsp; &amp;nbsp; &amp;nbsp; &amp;nbsp; &#39;update_interval&#39;: update_inverval&lt;br&gt;&amp;nbsp; &amp;nbsp; }&lt;br&gt;}&lt;/font&gt;&lt;/li&gt;&lt;/ul&gt;&lt;li&gt;&lt;font face=&quot;Tahoma&quot;&gt;our_server_id: int&lt;/font&gt;&lt;/li&gt;&lt;li&gt;host_server: ServerObject&lt;/li&gt;&lt;ul&gt;&lt;li&gt;provide convenient access to the host server&lt;/li&gt;&lt;/ul&gt;&lt;/ul&gt;&lt;/div&gt;&lt;p&gt;&lt;/p&gt;" style="text;html=1;strokeColor=none;fillColor=none;align=left;verticalAlign=middle;whiteSpace=wrap;rounded=0;" parent="NjoNPDYluXKRzzez1GX--15" vertex="1">
          <mxGeometry y="30" width="410" height="300" as="geometry" />
        </mxCell>
        <mxCell id="NjoNPDYluXKRzzez1GX--12" value="&lt;p style=&quot;line-height: 130%;&quot;&gt;&lt;/p&gt;&lt;div align=&quot;left&quot;&gt;&lt;ul style=&quot;line-height: 130%;&quot;&gt;&lt;li&gt;&lt;font face=&quot;Tahoma&quot;&gt;read_file(file_name)&lt;/font&gt;&lt;/li&gt;&lt;ul&gt;&lt;li&gt;&lt;font face=&quot;Tahoma&quot;&gt;returns the contents of file_name&lt;/font&gt;&lt;/li&gt;&lt;/ul&gt;&lt;li&gt;&lt;font face=&quot;Tahoma&quot;&gt;validate_topology_file(lines, num_servers, num_edges)&lt;/font&gt;&lt;/li&gt;&lt;ul&gt;&lt;li&gt;&lt;font face=&quot;Tahoma&quot;&gt;verifies that the topology file is in the correct format&lt;/font&gt;&lt;/li&gt;&lt;/ul&gt;&lt;li&gt;&lt;font face=&quot;Tahoma&quot;&gt;parse_topology(content)&lt;/font&gt;&lt;/li&gt;&lt;ul&gt;&lt;li&gt;&lt;font face=&quot;Tahoma&quot;&gt;initializes list_of_servers and the host&#39;s neighbors&lt;/font&gt;&lt;/li&gt;&lt;/ul&gt;&lt;li&gt;&lt;font face=&quot;Tahoma&quot;&gt;init_topology(file_name)&lt;br&gt;&lt;/font&gt;&lt;/li&gt;&lt;ul style=&quot;line-height: 130%;&quot;&gt;&lt;li style=&quot;border-color: var(--border-color);&quot;&gt;&lt;font face=&quot;Tahoma&quot;&gt;calls read_file() and parse_topology()&lt;/font&gt;&lt;/li&gt;&lt;li style=&quot;border-color: var(--border-color);&quot;&gt;&lt;font face=&quot;Tahoma&quot;&gt;returns our_server_id&lt;/font&gt;&lt;/li&gt;&lt;/ul&gt;&lt;li&gt;&lt;font face=&quot;Tahoma&quot;&gt;get_server_by_id(server_id)&lt;/font&gt;&lt;/li&gt;&lt;ul&gt;&lt;li&gt;&lt;font face=&quot;Tahoma&quot;&gt;returns ServerObject from list_of_servers&lt;/font&gt;&lt;/li&gt;&lt;/ul&gt;&lt;li&gt;&lt;font face=&quot;Tahoma&quot;&gt;set_update_interval(update_interval)&lt;/font&gt;&lt;/li&gt;&lt;li&gt;&lt;font face=&quot;Tahoma&quot;&gt;udp_send(dest_server_id)&lt;/font&gt;&lt;/li&gt;&lt;ul&gt;&lt;li&gt;&lt;font face=&quot;Tahoma&quot;&gt;creates a Packet object and sends it to dest_server&lt;/font&gt;&lt;/li&gt;&lt;/ul&gt;&lt;li&gt;&lt;font face=&quot;Tahoma&quot;&gt;listen(server_ip, server_port)&lt;/font&gt;&lt;/li&gt;&lt;ul&gt;&lt;li&gt;&lt;font face=&quot;Tahoma&quot;&gt;opens udp socket on server_port&lt;/font&gt;&lt;/li&gt;&lt;li&gt;&lt;font face=&quot;Tahoma&quot;&gt;calls parse_packet() when a message is received&lt;/font&gt;&lt;/li&gt;&lt;li&gt;&lt;font face=&quot;Tahoma&quot;&gt;updates time_stamp&lt;/font&gt;&lt;/li&gt;&lt;/ul&gt;&lt;li&gt;&lt;font face=&quot;Tahoma&quot;&gt;timeout()&lt;/font&gt;&lt;/li&gt;&lt;ul&gt;&lt;li&gt;&lt;font face=&quot;Tahoma&quot;&gt;checks if a server hasn&#39;t sent a message in 3 update intervals&lt;br&gt;&lt;/font&gt;&lt;/li&gt;&lt;li&gt;&lt;font face=&quot;Tahoma&quot;&gt;calls turn_off() if that is the case&lt;/font&gt;&lt;/li&gt;&lt;/ul&gt;&lt;li&gt;&lt;font face=&quot;Tahoma&quot;&gt;parse_packet(packet)&lt;/font&gt;&lt;/li&gt;&lt;ul&gt;&lt;li&gt;updates the host&#39;s neighbor_dv and distance_vector&lt;/li&gt;&lt;li&gt;returns sender&#39;s server_id and update_interval&lt;/li&gt;&lt;/ul&gt;&lt;li&gt;&lt;font face=&quot;Tahoma&quot;&gt;start_timer()&lt;/font&gt;&lt;/li&gt;&lt;ul&gt;&lt;li&gt;&lt;font face=&quot;Tahoma&quot;&gt;calls udp_send() periodically to send the host&#39;s distance_vector to its neighbors&lt;/font&gt;&lt;/li&gt;&lt;/ul&gt;&lt;li&gt;&lt;font face=&quot;Tahoma&quot;&gt;update()&lt;/font&gt;&lt;/li&gt;&lt;ul&gt;&lt;li&gt;&lt;font face=&quot;Tahoma&quot;&gt;updates time_stamp with the current time&lt;/font&gt;&lt;/li&gt;&lt;/ul&gt;&lt;li&gt;&lt;font face=&quot;Tahoma&quot;&gt;update_distance_vector(src_server_id)&lt;/font&gt;&lt;/li&gt;&lt;ul&gt;&lt;li&gt;&lt;font face=&quot;Tahoma&quot;&gt;uses the formula to update the src_server&#39;s distance_vector&lt;/font&gt;&lt;/li&gt;&lt;/ul&gt;&lt;/ul&gt;&lt;/div&gt;&lt;p&gt;&lt;/p&gt;" style="text;html=1;strokeColor=none;fillColor=none;align=left;verticalAlign=middle;whiteSpace=wrap;rounded=0;" parent="NjoNPDYluXKRzzez1GX--15" vertex="1">
          <mxGeometry x="10" y="380" width="380" height="612.5" as="geometry" />
        </mxCell>
        <mxCell id="NjoNPDYluXKRzzez1GX--18" value="ServerObject" style="swimlane;whiteSpace=wrap;html=1;fillColor=#dae8fc;strokeColor=#6c8ebf;" parent="1" vertex="1">
          <mxGeometry x="445" y="10" width="430" height="830" as="geometry" />
        </mxCell>
        <mxCell id="NjoNPDYluXKRzzez1GX--11" value="&lt;p style=&quot;line-height: 120%;&quot;&gt;&lt;/p&gt;&lt;div align=&quot;left&quot;&gt;&lt;ul style=&quot;line-height: 130%;&quot;&gt;&lt;li&gt;&lt;font face=&quot;Tahoma&quot;&gt;server_id: int&lt;/font&gt;&lt;/li&gt;&lt;li&gt;&lt;font face=&quot;Tahoma&quot;&gt;server_ip: string&lt;/font&gt;&lt;/li&gt;&lt;li&gt;&lt;font face=&quot;Tahoma&quot;&gt;server_port: int&lt;/font&gt;&lt;/li&gt;&lt;li&gt;&lt;font face=&quot;Tahoma&quot;&gt;neighbors: dict/hashmap&lt;/font&gt;&lt;/li&gt;&lt;ul style=&quot;line-height: 130%;&quot;&gt;&lt;li&gt;&lt;font face=&quot;Lucida Console&quot;&gt;{&lt;br&gt;&amp;nbsp; &amp;nbsp; server_id =&amp;gt; actual cost&lt;br&gt;}&lt;/font&gt;&lt;/li&gt;&lt;/ul&gt;&lt;li&gt;&lt;font face=&quot;Tahoma&quot;&gt;distance_vector: dict/hashmap&lt;/font&gt;&lt;/li&gt;&lt;ul style=&quot;line-height: 130%;&quot;&gt;&lt;li&gt;&lt;font face=&quot;Lucida Console&quot;&gt;{&lt;br&gt;&amp;nbsp; &amp;nbsp; server_id =&amp;gt; {&lt;br&gt;&amp;nbsp; &amp;nbsp; &amp;nbsp; &amp;nbsp; &#39;least_cost&#39; =&amp;gt; least_cost,&lt;br&gt;&amp;nbsp; &amp;nbsp; &amp;nbsp; &amp;nbsp; &#39;next_hop_server_id&#39; =&amp;gt; server_id&lt;br&gt;&amp;nbsp; &amp;nbsp; }&lt;br&gt;}&lt;/font&gt;&lt;/li&gt;&lt;/ul&gt;&lt;li&gt;neighbor_dv: dict/hashmap&lt;br&gt;&lt;/li&gt;&lt;ul&gt;&lt;li&gt;the server&#39;s copy of its neighbors&#39; distance vectors&lt;/li&gt;&lt;li style=&quot;border-color: var(--border-color);&quot;&gt;&lt;font face=&quot;Lucida Console&quot;&gt;&lt;font style=&quot;border-color: var(--border-color);&quot;&gt;{&lt;br&gt;&amp;nbsp; &amp;nbsp; neighbor_id =&amp;gt; {&lt;br&gt;&amp;nbsp; &amp;nbsp; &amp;nbsp; &amp;nbsp; server_id =&amp;gt; {&lt;br&gt;&amp;nbsp; &amp;nbsp; &amp;nbsp; &amp;nbsp; &amp;nbsp; &amp;nbsp; &#39;least_cost&#39; =&amp;gt; least_cost&lt;/font&gt;,&lt;br&gt;&amp;nbsp; &amp;nbsp; &amp;nbsp; &amp;nbsp; &amp;nbsp; &amp;nbsp; &#39;next_hop_server_id&#39; =&amp;gt; server_id&lt;br&gt;&amp;nbsp; &amp;nbsp; &amp;nbsp; &amp;nbsp; }&lt;br&gt;&amp;nbsp; &amp;nbsp; }&lt;br&gt;}&lt;/font&gt;&lt;/li&gt;&lt;/ul&gt;&lt;li&gt;&lt;font face=&quot;Tahoma&quot;&gt;num_packets_rcvd: int&lt;/font&gt;&lt;/li&gt;&lt;/ul&gt;&lt;/div&gt;&lt;p&gt;&lt;/p&gt;" style="text;html=1;strokeColor=none;fillColor=none;align=left;verticalAlign=middle;whiteSpace=wrap;rounded=0;" parent="NjoNPDYluXKRzzez1GX--18" vertex="1">
          <mxGeometry y="30" width="470" height="410" as="geometry" />
        </mxCell>
        <mxCell id="NjoNPDYluXKRzzez1GX--22" value="&lt;p style=&quot;line-height: 100%;&quot;&gt;&lt;/p&gt;&lt;div style=&quot;line-height: 130%;&quot; align=&quot;left&quot;&gt;&lt;ul style=&quot;line-height: 130%;&quot;&gt;&lt;li&gt;init_distance_vector()&lt;/li&gt;&lt;ul&gt;&lt;li&gt;initializes distance_vector so that it reflects the cost of the neighbors&lt;/li&gt;&lt;/ul&gt;&lt;li&gt;add_neighbor_cost(server_id, cost)&lt;/li&gt;&lt;ul&gt;&lt;li&gt;adds/updates a server to neighbors&lt;/li&gt;&lt;/ul&gt;&lt;li&gt;&lt;font face=&quot;Tahoma&quot;&gt;get_least_cost(server_id)&lt;/font&gt;&lt;/li&gt;&lt;ul style=&quot;line-height: 130%;&quot;&gt;&lt;li&gt;&lt;font face=&quot;Tahoma&quot;&gt;returns least_cost stored in distance_vector&lt;/font&gt;&lt;/li&gt;&lt;/ul&gt;&lt;li&gt;&lt;font face=&quot;Tahoma&quot;&gt;get_next_hop_server_id(server_id)&lt;/font&gt;&lt;/li&gt;&lt;ul&gt;&lt;li style=&quot;border-color: var(--border-color);&quot;&gt;&lt;font style=&quot;border-color: var(--border-color);&quot; face=&quot;Tahoma&quot;&gt;returns next_hop_server_id stored in distance_vector&lt;/font&gt;&lt;/li&gt;&lt;/ul&gt;&lt;li&gt;&lt;font face=&quot;Tahoma&quot;&gt;get_neighbor_cost(server_id)&lt;/font&gt;&lt;/li&gt;&lt;ul&gt;&lt;li&gt;&lt;font face=&quot;Tahoma&quot;&gt;returns cost stored in neighbors&lt;/font&gt;&lt;/li&gt;&lt;/ul&gt;&lt;li&gt;&lt;font face=&quot;Tahoma&quot;&gt;display_routing_table()&lt;/font&gt;&lt;/li&gt;&lt;ul&gt;&lt;li&gt;&lt;font face=&quot;Tahoma&quot;&gt;prints each entry in distance_vector&lt;/font&gt;&lt;/li&gt;&lt;/ul&gt;&lt;li&gt;&lt;font face=&quot;Tahoma&quot;&gt;get_packets_rcvd()&lt;/font&gt;&lt;/li&gt;&lt;ul&gt;&lt;li&gt;&lt;font face=&quot;Tahoma&quot;&gt;returns num_packets_rcvd&lt;/font&gt;&lt;/li&gt;&lt;li&gt;&lt;font face=&quot;Tahoma&quot;&gt;resets it to zero before returning&lt;/font&gt;&lt;/li&gt;&lt;/ul&gt;&lt;li&gt;&lt;font face=&quot;Tahoma&quot;&gt;turn_off(server_id)&lt;/font&gt;&lt;/li&gt;&lt;ul&gt;&lt;li&gt;&lt;font face=&quot;Tahoma&quot;&gt;updates distance_vector so that least_cost to server_id is infinite&lt;/font&gt;&lt;/li&gt;&lt;/ul&gt;&lt;/ul&gt;&lt;/div&gt;&lt;p&gt;&lt;/p&gt;" style="text;html=1;strokeColor=none;fillColor=none;align=left;verticalAlign=middle;whiteSpace=wrap;rounded=0;" parent="NjoNPDYluXKRzzez1GX--18" vertex="1">
          <mxGeometry y="520" width="430" height="300" as="geometry" />
        </mxCell>
        <mxCell id="NjoNPDYluXKRzzez1GX--30" value="Packet" style="swimlane;whiteSpace=wrap;html=1;" parent="1" vertex="1">
          <mxGeometry x="445" y="860" width="360" height="150" as="geometry" />
        </mxCell>
        <mxCell id="NjoNPDYluXKRzzez1GX--32" value="&lt;p style=&quot;line-height: 130%;&quot;&gt;&lt;/p&gt;&lt;div&gt;&lt;ul style=&quot;line-height: 130%;&quot;&gt;&lt;li&gt;&lt;font face=&quot;Tahoma&quot;&gt;num_update_fields: int&lt;/font&gt;&lt;/li&gt;&lt;ul&gt;&lt;li&gt;&lt;font face=&quot;Tahoma&quot;&gt;number of entries in distance_vector&lt;/font&gt;&lt;/li&gt;&lt;/ul&gt;&lt;li style=&quot;border-color: var(--border-color);&quot;&gt;&lt;font style=&quot;border-color: var(--border-color);&quot; face=&quot;Tahoma&quot;&gt;server_ip: string&lt;/font&gt;&lt;/li&gt;&lt;li&gt;&lt;font face=&quot;Tahoma&quot;&gt;server_port: int&lt;/font&gt;&lt;/li&gt;&lt;li&gt;&lt;font face=&quot;Tahoma&quot;&gt;distance_vector: dict/hashmap&lt;/font&gt;&lt;/li&gt;&lt;ul&gt;&lt;li&gt;&lt;font face=&quot;Tahoma&quot;&gt;a server&#39;s distance_vector&lt;/font&gt;&lt;/li&gt;&lt;/ul&gt;&lt;/ul&gt;&lt;/div&gt;&lt;p&gt;&lt;/p&gt;" style="text;html=1;strokeColor=none;fillColor=none;align=left;verticalAlign=middle;whiteSpace=wrap;rounded=0;" parent="NjoNPDYluXKRzzez1GX--30" vertex="1">
          <mxGeometry y="30" width="360" height="105" as="geometry" />
        </mxCell>
        <mxCell id="4oj95tw8URPRINXik8E5-2" value="" style="edgeStyle=orthogonalEdgeStyle;rounded=0;orthogonalLoop=1;jettySize=auto;html=1;" parent="1" source="NjoNPDYluXKRzzez1GX--34" target="4oj95tw8URPRINXik8E5-1" edge="1">
          <mxGeometry relative="1" as="geometry" />
        </mxCell>
        <mxCell id="NjoNPDYluXKRzzez1GX--34" value="start" style="rounded=1;whiteSpace=wrap;html=1;" parent="1" vertex="1">
          <mxGeometry x="1280" y="4.37" width="120" height="60" as="geometry" />
        </mxCell>
        <mxCell id="z0qrZOzNgaJA19otfbI5-46" value="" style="edgeStyle=orthogonalEdgeStyle;rounded=0;orthogonalLoop=1;jettySize=auto;html=1;" edge="1" parent="1" source="NjoNPDYluXKRzzez1GX--35" target="z0qrZOzNgaJA19otfbI5-45">
          <mxGeometry relative="1" as="geometry" />
        </mxCell>
        <mxCell id="z0qrZOzNgaJA19otfbI5-55" style="edgeStyle=orthogonalEdgeStyle;rounded=0;orthogonalLoop=1;jettySize=auto;html=1;entryX=1;entryY=0.5;entryDx=0;entryDy=0;" edge="1" parent="1" source="NjoNPDYluXKRzzez1GX--35" target="z0qrZOzNgaJA19otfbI5-54">
          <mxGeometry relative="1" as="geometry" />
        </mxCell>
        <mxCell id="NjoNPDYluXKRzzez1GX--35" value="init_topology()" style="rounded=0;whiteSpace=wrap;html=1;fillColor=#ffe6cc;strokeColor=#d79b00;" parent="1" vertex="1">
          <mxGeometry x="1280" y="224.37" width="120" height="60" as="geometry" />
        </mxCell>
        <mxCell id="z0qrZOzNgaJA19otfbI5-20" value="" style="edgeStyle=orthogonalEdgeStyle;rounded=0;orthogonalLoop=1;jettySize=auto;html=1;exitX=1;exitY=0.25;exitDx=0;exitDy=0;" edge="1" parent="1" source="NjoNPDYluXKRzzez1GX--47" target="NjoNPDYluXKRzzez1GX--52">
          <mxGeometry relative="1" as="geometry" />
        </mxCell>
        <mxCell id="z0qrZOzNgaJA19otfbI5-65" style="edgeStyle=orthogonalEdgeStyle;rounded=0;orthogonalLoop=1;jettySize=auto;html=1;entryX=0.5;entryY=0;entryDx=0;entryDy=0;" edge="1" parent="1" source="NjoNPDYluXKRzzez1GX--47" target="HWVyQYs9HK1jK68Z1KZ2-4">
          <mxGeometry relative="1" as="geometry" />
        </mxCell>
        <mxCell id="z0qrZOzNgaJA19otfbI5-73" style="edgeStyle=orthogonalEdgeStyle;rounded=0;orthogonalLoop=1;jettySize=auto;html=1;entryX=0.5;entryY=0;entryDx=0;entryDy=0;" edge="1" parent="1" source="NjoNPDYluXKRzzez1GX--47" target="NjoNPDYluXKRzzez1GX--57">
          <mxGeometry relative="1" as="geometry" />
        </mxCell>
        <mxCell id="z0qrZOzNgaJA19otfbI5-76" style="edgeStyle=orthogonalEdgeStyle;rounded=0;orthogonalLoop=1;jettySize=auto;html=1;exitX=1;exitY=0.75;exitDx=0;exitDy=0;entryX=0.5;entryY=0;entryDx=0;entryDy=0;" edge="1" parent="1" source="NjoNPDYluXKRzzez1GX--47" target="z0qrZOzNgaJA19otfbI5-14">
          <mxGeometry relative="1" as="geometry" />
        </mxCell>
        <mxCell id="NjoNPDYluXKRzzez1GX--47" value="init_distance_vector()" style="rounded=0;whiteSpace=wrap;html=1;fillColor=#dae8fc;strokeColor=#6c8ebf;" parent="1" vertex="1">
          <mxGeometry x="1270" y="394.37" width="140" height="60" as="geometry" />
        </mxCell>
        <mxCell id="HWVyQYs9HK1jK68Z1KZ2-2" style="edgeStyle=orthogonalEdgeStyle;rounded=0;orthogonalLoop=1;jettySize=auto;html=1;entryX=0;entryY=0.5;entryDx=0;entryDy=0;" parent="1" source="NjoNPDYluXKRzzez1GX--52" target="HWVyQYs9HK1jK68Z1KZ2-1" edge="1">
          <mxGeometry relative="1" as="geometry" />
        </mxCell>
        <mxCell id="NjoNPDYluXKRzzez1GX--52" value="listen()" style="rounded=0;whiteSpace=wrap;html=1;fillColor=#ffe6cc;strokeColor=#d79b00;" parent="1" vertex="1">
          <mxGeometry x="1510" y="374.37" width="120" height="60" as="geometry" />
        </mxCell>
        <mxCell id="NjoNPDYluXKRzzez1GX--54" value="on another thread" style="shape=note;whiteSpace=wrap;html=1;backgroundOutline=1;darkOpacity=0.05;" parent="1" vertex="1">
          <mxGeometry x="1650" y="254.37" width="80" height="100" as="geometry" />
        </mxCell>
        <mxCell id="NjoNPDYluXKRzzez1GX--56" value="" style="endArrow=none;html=1;rounded=0;exitX=1;exitY=0;exitDx=0;exitDy=0;entryX=0;entryY=1;entryDx=0;entryDy=0;entryPerimeter=0;" parent="1" source="NjoNPDYluXKRzzez1GX--52" target="NjoNPDYluXKRzzez1GX--54" edge="1">
          <mxGeometry width="50" height="50" relative="1" as="geometry">
            <mxPoint x="1440" y="674.37" as="sourcePoint" />
            <mxPoint x="1490" y="624.37" as="targetPoint" />
          </mxGeometry>
        </mxCell>
        <mxCell id="z0qrZOzNgaJA19otfbI5-27" style="edgeStyle=orthogonalEdgeStyle;rounded=0;orthogonalLoop=1;jettySize=auto;html=1;entryX=1;entryY=0.5;entryDx=0;entryDy=0;exitX=0;exitY=0.25;exitDx=0;exitDy=0;" edge="1" parent="1" source="NjoNPDYluXKRzzez1GX--57" target="jb7w0RZWeNpOCV6UPbe5-14">
          <mxGeometry relative="1" as="geometry" />
        </mxCell>
        <mxCell id="z0qrZOzNgaJA19otfbI5-29" style="edgeStyle=orthogonalEdgeStyle;rounded=0;orthogonalLoop=1;jettySize=auto;html=1;exitX=0;exitY=0.75;exitDx=0;exitDy=0;entryX=1;entryY=0.5;entryDx=0;entryDy=0;" edge="1" parent="1" source="NjoNPDYluXKRzzez1GX--57" target="jb7w0RZWeNpOCV6UPbe5-16">
          <mxGeometry relative="1" as="geometry" />
        </mxCell>
        <mxCell id="z0qrZOzNgaJA19otfbI5-31" style="edgeStyle=orthogonalEdgeStyle;rounded=0;orthogonalLoop=1;jettySize=auto;html=1;exitX=0.25;exitY=1;exitDx=0;exitDy=0;entryX=0.5;entryY=0;entryDx=0;entryDy=0;" edge="1" parent="1" source="NjoNPDYluXKRzzez1GX--57" target="jb7w0RZWeNpOCV6UPbe5-7">
          <mxGeometry relative="1" as="geometry" />
        </mxCell>
        <mxCell id="z0qrZOzNgaJA19otfbI5-36" style="edgeStyle=orthogonalEdgeStyle;rounded=0;orthogonalLoop=1;jettySize=auto;html=1;exitX=1;exitY=0.75;exitDx=0;exitDy=0;entryX=0;entryY=0.5;entryDx=0;entryDy=0;" edge="1" parent="1" source="NjoNPDYluXKRzzez1GX--57" target="z0qrZOzNgaJA19otfbI5-35">
          <mxGeometry relative="1" as="geometry" />
        </mxCell>
        <mxCell id="z0qrZOzNgaJA19otfbI5-42" style="edgeStyle=orthogonalEdgeStyle;rounded=0;orthogonalLoop=1;jettySize=auto;html=1;exitX=0.75;exitY=1;exitDx=0;exitDy=0;entryX=0.5;entryY=0;entryDx=0;entryDy=0;" edge="1" parent="1" source="NjoNPDYluXKRzzez1GX--57" target="z0qrZOzNgaJA19otfbI5-40">
          <mxGeometry relative="1" as="geometry" />
        </mxCell>
        <mxCell id="z0qrZOzNgaJA19otfbI5-75" style="edgeStyle=orthogonalEdgeStyle;rounded=0;orthogonalLoop=1;jettySize=auto;html=1;exitX=1;exitY=0.25;exitDx=0;exitDy=0;entryX=0;entryY=0.5;entryDx=0;entryDy=0;" edge="1" parent="1" source="NjoNPDYluXKRzzez1GX--57" target="4oj95tw8URPRINXik8E5-37">
          <mxGeometry relative="1" as="geometry" />
        </mxCell>
        <mxCell id="NjoNPDYluXKRzzez1GX--57" value="ask for user commands" style="rounded=0;whiteSpace=wrap;html=1;" parent="1" vertex="1">
          <mxGeometry x="1280" y="664.37" width="120" height="60" as="geometry" />
        </mxCell>
        <mxCell id="jb7w0RZWeNpOCV6UPbe5-7" value="exit the program" style="rounded=0;whiteSpace=wrap;html=1;" parent="1" vertex="1">
          <mxGeometry x="1020" y="829.37" width="120" height="60" as="geometry" />
        </mxCell>
        <mxCell id="jb7w0RZWeNpOCV6UPbe5-14" value="display_routing_table()" style="rounded=0;whiteSpace=wrap;html=1;fillColor=#dae8fc;strokeColor=#6c8ebf;" parent="1" vertex="1">
          <mxGeometry x="940" y="634.37" width="140" height="60" as="geometry" />
        </mxCell>
        <mxCell id="jb7w0RZWeNpOCV6UPbe5-16" value="get_packets_rcvd()" style="rounded=0;whiteSpace=wrap;html=1;fillColor=#dae8fc;strokeColor=#6c8ebf;" parent="1" vertex="1">
          <mxGeometry x="940" y="704.37" width="140" height="60" as="geometry" />
        </mxCell>
        <mxCell id="jb7w0RZWeNpOCV6UPbe5-33" value="receive message" style="text;html=1;strokeColor=none;fillColor=none;align=center;verticalAlign=middle;whiteSpace=wrap;rounded=0;" parent="1" vertex="1">
          <mxGeometry x="1650" y="394.37" width="120" height="50" as="geometry" />
        </mxCell>
        <mxCell id="z0qrZOzNgaJA19otfbI5-83" value="" style="edgeStyle=orthogonalEdgeStyle;rounded=0;orthogonalLoop=1;jettySize=auto;html=1;" edge="1" parent="1" source="HWVyQYs9HK1jK68Z1KZ2-1" target="z0qrZOzNgaJA19otfbI5-62">
          <mxGeometry relative="1" as="geometry" />
        </mxCell>
        <mxCell id="HWVyQYs9HK1jK68Z1KZ2-1" value="parse_packet()" style="rounded=0;whiteSpace=wrap;html=1;fillColor=#ffe6cc;strokeColor=#d79b00;" parent="1" vertex="1">
          <mxGeometry x="1800" y="374.37" width="120" height="60" as="geometry" />
        </mxCell>
        <mxCell id="z0qrZOzNgaJA19otfbI5-71" value="" style="edgeStyle=orthogonalEdgeStyle;rounded=0;orthogonalLoop=1;jettySize=auto;html=1;" edge="1" parent="1" source="HWVyQYs9HK1jK68Z1KZ2-4" target="z0qrZOzNgaJA19otfbI5-67">
          <mxGeometry relative="1" as="geometry" />
        </mxCell>
        <mxCell id="HWVyQYs9HK1jK68Z1KZ2-4" value="start_timer()" style="rounded=0;whiteSpace=wrap;html=1;fillColor=#ffe6cc;strokeColor=#d79b00;" parent="1" vertex="1">
          <mxGeometry x="1120" y="464.37" width="120" height="60" as="geometry" />
        </mxCell>
        <mxCell id="HWVyQYs9HK1jK68Z1KZ2-25" value="on another thread" style="shape=note;whiteSpace=wrap;html=1;backgroundOutline=1;darkOpacity=0.05;" parent="1" vertex="1">
          <mxGeometry x="990" y="484.37" width="80" height="100" as="geometry" />
        </mxCell>
        <mxCell id="HWVyQYs9HK1jK68Z1KZ2-26" value="" style="endArrow=none;html=1;rounded=0;entryX=0;entryY=0;entryDx=0;entryDy=0;exitX=0;exitY=0;exitDx=65;exitDy=15;exitPerimeter=0;" parent="1" source="HWVyQYs9HK1jK68Z1KZ2-25" target="HWVyQYs9HK1jK68Z1KZ2-4" edge="1">
          <mxGeometry width="50" height="50" relative="1" as="geometry">
            <mxPoint x="1570" y="984.37" as="sourcePoint" />
            <mxPoint x="1620" y="934.37" as="targetPoint" />
          </mxGeometry>
        </mxCell>
        <mxCell id="4oj95tw8URPRINXik8E5-5" value="" style="edgeStyle=orthogonalEdgeStyle;rounded=0;orthogonalLoop=1;jettySize=auto;html=1;" parent="1" source="4oj95tw8URPRINXik8E5-1" target="NjoNPDYluXKRzzez1GX--35" edge="1">
          <mxGeometry relative="1" as="geometry" />
        </mxCell>
        <mxCell id="4oj95tw8URPRINXik8E5-1" value="ask for server command" style="rounded=0;whiteSpace=wrap;html=1;" parent="1" vertex="1">
          <mxGeometry x="1280" y="114.37" width="120" height="60" as="geometry" />
        </mxCell>
        <mxCell id="4oj95tw8URPRINXik8E5-47" value="" style="edgeStyle=orthogonalEdgeStyle;rounded=0;orthogonalLoop=1;jettySize=auto;html=1;" parent="1" source="4oj95tw8URPRINXik8E5-37" target="4oj95tw8URPRINXik8E5-46" edge="1">
          <mxGeometry relative="1" as="geometry" />
        </mxCell>
        <mxCell id="4oj95tw8URPRINXik8E5-37" value="add_neighbor_cost()" style="rounded=0;whiteSpace=wrap;html=1;fillColor=#dae8fc;strokeColor=#6c8ebf;" parent="1" vertex="1">
          <mxGeometry x="1510" y="704.37" width="160" height="60" as="geometry" />
        </mxCell>
        <mxCell id="4oj95tw8URPRINXik8E5-46" value="update_distance_vector()" style="rounded=0;whiteSpace=wrap;html=1;fillColor=#ffe6cc;strokeColor=#d79b00;" parent="1" vertex="1">
          <mxGeometry x="1710" y="704.37" width="160" height="60" as="geometry" />
        </mxCell>
        <mxCell id="z0qrZOzNgaJA19otfbI5-11" value="for the host server" style="shape=note;whiteSpace=wrap;html=1;backgroundOutline=1;darkOpacity=0.05;" vertex="1" parent="1">
          <mxGeometry x="1420" y="274.37" width="80" height="100" as="geometry" />
        </mxCell>
        <mxCell id="z0qrZOzNgaJA19otfbI5-12" value="" style="endArrow=none;html=1;rounded=0;exitX=0;exitY=1;exitDx=0;exitDy=0;exitPerimeter=0;entryX=1;entryY=0;entryDx=0;entryDy=0;" edge="1" parent="1" source="z0qrZOzNgaJA19otfbI5-11" target="NjoNPDYluXKRzzez1GX--47">
          <mxGeometry width="50" height="50" relative="1" as="geometry">
            <mxPoint x="890" y="534.37" as="sourcePoint" />
            <mxPoint x="940" y="484.37" as="targetPoint" />
          </mxGeometry>
        </mxCell>
        <mxCell id="z0qrZOzNgaJA19otfbI5-51" style="edgeStyle=orthogonalEdgeStyle;rounded=0;orthogonalLoop=1;jettySize=auto;html=1;exitX=1;exitY=0.5;exitDx=0;exitDy=0;entryX=0;entryY=0.5;entryDx=0;entryDy=0;" edge="1" parent="1" source="z0qrZOzNgaJA19otfbI5-14" target="z0qrZOzNgaJA19otfbI5-50">
          <mxGeometry relative="1" as="geometry" />
        </mxCell>
        <mxCell id="z0qrZOzNgaJA19otfbI5-14" value="timeout()" style="rounded=0;whiteSpace=wrap;html=1;fillColor=#ffe6cc;strokeColor=#d79b00;" vertex="1" parent="1">
          <mxGeometry x="1390" y="564.37" width="120" height="60" as="geometry" />
        </mxCell>
        <mxCell id="z0qrZOzNgaJA19otfbI5-15" value="on another thread" style="shape=note;whiteSpace=wrap;html=1;backgroundOutline=1;darkOpacity=0.05;" vertex="1" parent="1">
          <mxGeometry x="1530" y="444.37" width="80" height="100" as="geometry" />
        </mxCell>
        <mxCell id="z0qrZOzNgaJA19otfbI5-17" value="" style="endArrow=none;html=1;rounded=0;exitX=1;exitY=0;exitDx=0;exitDy=0;entryX=0;entryY=1;entryDx=0;entryDy=0;entryPerimeter=0;" edge="1" parent="1" source="z0qrZOzNgaJA19otfbI5-14" target="z0qrZOzNgaJA19otfbI5-15">
          <mxGeometry width="50" height="50" relative="1" as="geometry">
            <mxPoint x="1670" y="374.37" as="sourcePoint" />
            <mxPoint x="1720" y="344.37" as="targetPoint" />
          </mxGeometry>
        </mxCell>
        <mxCell id="z0qrZOzNgaJA19otfbI5-28" value="display" style="text;html=1;strokeColor=none;fillColor=none;align=center;verticalAlign=middle;whiteSpace=wrap;rounded=0;" vertex="1" parent="1">
          <mxGeometry x="1220" y="654.37" width="60" height="30" as="geometry" />
        </mxCell>
        <mxCell id="z0qrZOzNgaJA19otfbI5-30" value="packets" style="text;html=1;strokeColor=none;fillColor=none;align=center;verticalAlign=middle;whiteSpace=wrap;rounded=0;" vertex="1" parent="1">
          <mxGeometry x="1220" y="704.37" width="60" height="30" as="geometry" />
        </mxCell>
        <mxCell id="z0qrZOzNgaJA19otfbI5-32" value="crash" style="text;html=1;strokeColor=none;fillColor=none;align=center;verticalAlign=middle;whiteSpace=wrap;rounded=0;" vertex="1" parent="1">
          <mxGeometry x="1255" y="754.37" width="60" height="30" as="geometry" />
        </mxCell>
        <mxCell id="z0qrZOzNgaJA19otfbI5-37" value="step" style="text;html=1;strokeColor=none;fillColor=none;align=center;verticalAlign=middle;whiteSpace=wrap;rounded=0;" vertex="1" parent="1">
          <mxGeometry x="1390" y="704.37" width="60" height="30" as="geometry" />
        </mxCell>
        <mxCell id="z0qrZOzNgaJA19otfbI5-35" value="udp_send()" style="rounded=0;whiteSpace=wrap;html=1;fillColor=#ffe6cc;strokeColor=#d79b00;" vertex="1" parent="1">
          <mxGeometry x="1470" y="804.37" width="120" height="60" as="geometry" />
        </mxCell>
        <mxCell id="z0qrZOzNgaJA19otfbI5-43" style="edgeStyle=orthogonalEdgeStyle;rounded=0;orthogonalLoop=1;jettySize=auto;html=1;entryX=0.5;entryY=0;entryDx=0;entryDy=0;" edge="1" parent="1" source="z0qrZOzNgaJA19otfbI5-40" target="z0qrZOzNgaJA19otfbI5-41">
          <mxGeometry relative="1" as="geometry" />
        </mxCell>
        <mxCell id="z0qrZOzNgaJA19otfbI5-40" value="add_neighbor_cost()" style="rounded=0;whiteSpace=wrap;html=1;fillColor=#dae8fc;strokeColor=#6c8ebf;" vertex="1" parent="1">
          <mxGeometry x="1190" y="874.37" width="160" height="60" as="geometry" />
        </mxCell>
        <mxCell id="z0qrZOzNgaJA19otfbI5-41" value="update_distance_vector()" style="rounded=0;whiteSpace=wrap;html=1;fillColor=#ffe6cc;strokeColor=#d79b00;" vertex="1" parent="1">
          <mxGeometry x="1190" y="955.62" width="160" height="60" as="geometry" />
        </mxCell>
        <mxCell id="z0qrZOzNgaJA19otfbI5-44" value="disable" style="text;html=1;strokeColor=none;fillColor=none;align=center;verticalAlign=middle;whiteSpace=wrap;rounded=0;" vertex="1" parent="1">
          <mxGeometry x="1315" y="774.37" width="60" height="30" as="geometry" />
        </mxCell>
        <mxCell id="z0qrZOzNgaJA19otfbI5-47" value="" style="edgeStyle=orthogonalEdgeStyle;rounded=0;orthogonalLoop=1;jettySize=auto;html=1;" edge="1" parent="1" source="z0qrZOzNgaJA19otfbI5-45" target="NjoNPDYluXKRzzez1GX--47">
          <mxGeometry relative="1" as="geometry" />
        </mxCell>
        <mxCell id="z0qrZOzNgaJA19otfbI5-45" value="set_update_interval()" style="rounded=0;whiteSpace=wrap;html=1;fillColor=#ffe6cc;strokeColor=#d79b00;" vertex="1" parent="1">
          <mxGeometry x="1280" y="314.37" width="120" height="60" as="geometry" />
        </mxCell>
        <mxCell id="z0qrZOzNgaJA19otfbI5-48" value="update()" style="rounded=0;whiteSpace=wrap;html=1;fillColor=#ffe6cc;strokeColor=#d79b00;" vertex="1" parent="1">
          <mxGeometry x="1800" y="174.37" width="120" height="60" as="geometry" />
        </mxCell>
        <mxCell id="z0qrZOzNgaJA19otfbI5-50" value="turn_off()" style="rounded=0;whiteSpace=wrap;html=1;fillColor=#dae8fc;strokeColor=#6c8ebf;" vertex="1" parent="1">
          <mxGeometry x="1700" y="564.37" width="120" height="60" as="geometry" />
        </mxCell>
        <mxCell id="z0qrZOzNgaJA19otfbI5-53" value="server didn&#39;t send anything for 3 update intervals" style="text;html=1;strokeColor=none;fillColor=none;align=center;verticalAlign=middle;whiteSpace=wrap;rounded=0;" vertex="1" parent="1">
          <mxGeometry x="1530" y="590" width="150" height="50" as="geometry" />
        </mxCell>
        <mxCell id="z0qrZOzNgaJA19otfbI5-57" value="" style="edgeStyle=orthogonalEdgeStyle;rounded=0;orthogonalLoop=1;jettySize=auto;html=1;" edge="1" parent="1" source="z0qrZOzNgaJA19otfbI5-54" target="z0qrZOzNgaJA19otfbI5-56">
          <mxGeometry relative="1" as="geometry" />
        </mxCell>
        <mxCell id="z0qrZOzNgaJA19otfbI5-54" value="read_file()" style="rounded=0;whiteSpace=wrap;html=1;fillColor=#ffe6cc;strokeColor=#d79b00;" vertex="1" parent="1">
          <mxGeometry x="1110" y="224.37" width="120" height="60" as="geometry" />
        </mxCell>
        <mxCell id="z0qrZOzNgaJA19otfbI5-60" value="" style="edgeStyle=orthogonalEdgeStyle;rounded=0;orthogonalLoop=1;jettySize=auto;html=1;" edge="1" parent="1" source="z0qrZOzNgaJA19otfbI5-56" target="z0qrZOzNgaJA19otfbI5-58">
          <mxGeometry relative="1" as="geometry" />
        </mxCell>
        <mxCell id="z0qrZOzNgaJA19otfbI5-56" value="parse_topology()" style="rounded=0;whiteSpace=wrap;html=1;fillColor=#ffe6cc;strokeColor=#d79b00;" vertex="1" parent="1">
          <mxGeometry x="960" y="224.37" width="120" height="60" as="geometry" />
        </mxCell>
        <mxCell id="z0qrZOzNgaJA19otfbI5-61" value="" style="edgeStyle=orthogonalEdgeStyle;rounded=0;orthogonalLoop=1;jettySize=auto;html=1;" edge="1" parent="1" source="z0qrZOzNgaJA19otfbI5-58" target="z0qrZOzNgaJA19otfbI5-59">
          <mxGeometry relative="1" as="geometry" />
        </mxCell>
        <mxCell id="z0qrZOzNgaJA19otfbI5-58" value="validate_topology_file()" style="rounded=0;whiteSpace=wrap;html=1;fillColor=#ffe6cc;strokeColor=#d79b00;" vertex="1" parent="1">
          <mxGeometry x="950" y="314.37" width="140" height="60" as="geometry" />
        </mxCell>
        <mxCell id="z0qrZOzNgaJA19otfbI5-59" value="add_neighbor_cost()" style="rounded=0;whiteSpace=wrap;html=1;fillColor=#dae8fc;strokeColor=#6c8ebf;" vertex="1" parent="1">
          <mxGeometry x="940" y="394.37" width="160" height="60" as="geometry" />
        </mxCell>
        <mxCell id="z0qrZOzNgaJA19otfbI5-84" value="" style="edgeStyle=orthogonalEdgeStyle;rounded=0;orthogonalLoop=1;jettySize=auto;html=1;" edge="1" parent="1" source="z0qrZOzNgaJA19otfbI5-62" target="z0qrZOzNgaJA19otfbI5-48">
          <mxGeometry relative="1" as="geometry" />
        </mxCell>
        <mxCell id="z0qrZOzNgaJA19otfbI5-62" value="update_distance_vector()" style="rounded=0;whiteSpace=wrap;html=1;fillColor=#ffe6cc;strokeColor=#d79b00;" vertex="1" parent="1">
          <mxGeometry x="1780" y="274.37" width="160" height="60" as="geometry" />
        </mxCell>
        <mxCell id="z0qrZOzNgaJA19otfbI5-67" value="udp_send()" style="rounded=0;whiteSpace=wrap;html=1;fillColor=#ffe6cc;strokeColor=#d79b00;" vertex="1" parent="1">
          <mxGeometry x="1120" y="574.37" width="120" height="60" as="geometry" />
        </mxCell>
        <mxCell id="z0qrZOzNgaJA19otfbI5-33" value="update" style="text;html=1;strokeColor=none;fillColor=none;align=center;verticalAlign=middle;whiteSpace=wrap;rounded=0;" vertex="1" parent="1">
          <mxGeometry x="1400" y="674.37" width="60" height="30" as="geometry" />
        </mxCell>
        <mxCell id="z0qrZOzNgaJA19otfbI5-82" value="after update_interval seconds have passed" style="text;html=1;strokeColor=none;fillColor=none;align=center;verticalAlign=middle;whiteSpace=wrap;rounded=0;" vertex="1" parent="1">
          <mxGeometry x="1185" y="534.37" width="130" height="30" as="geometry" />
        </mxCell>
      </root>
    </mxGraphModel>
  </diagram>
</mxfile>
